<svg width="1068" height="938" viewBox="0 0 1068 938" fill="none" xmlns="http://www.w3.org/2000/svg">
<path fill-rule="evenodd" clip-rule="evenodd" d="M827.163 629.208C741.264 719.521 754.43 921.57 629.653 936.175C502.364 951.075 447.72 764.239 344.584 685.695C270.443 629.232 165.676 619.059 112.677 542.467C56.7858 461.695 63.4308 359.905 52.1306 263.051C36.6304 130.199 -45.3651 -22.0492 34.5164 -127.45C113.33 -231.441 278.154 -216.538 409.871 -208.972C519.943 -202.649 606.122 -123.723 711.176 -88.5823C840.553 -45.3054 1008.61 -85.9426 1095.01 20.211C1181.66 126.658 1177.37 293.922 1123.05 417.43C1072.91 531.419 912.793 539.179 827.163 629.208Z" fill="#00D276"/>
</svg>
