<svg width="762" height="898" viewBox="0 0 762 898" fill="none" xmlns="http://www.w3.org/2000/svg">
<path fill-rule="evenodd" clip-rule="evenodd" d="M-106.322 856.581C-169.882 808.957 -126.733 721.348 -150.728 645.227C-174.719 569.118 -87.4513 501.913 -73.4883 422.813C-55.3057 319.81 -120.108 201.812 -57.5864 117.585C6.84681 30.7823 131.757 -15.3143 236.658 4.99383C338.892 24.7856 376.031 149.063 454.792 216.778C525.013 277.151 623.15 300.098 671.795 379.105C729.486 472.806 788.236 589.42 748.146 693.237C708.118 796.897 581.103 831.707 479.721 876.506C397.806 912.703 254.413 895.584 167.679 876.506C89.1518 859.234 -42.1264 904.682 -106.322 856.581Z" fill="#00D276"/>
</svg>
