<svg width="27" height="28" viewBox="0 0 27 28" fill="none" xmlns="http://www.w3.org/2000/svg">
<path d="M10.091 27.0001C10.7185 27.0001 11.2273 26.4458 11.2273 25.762C11.2273 25.0782 10.7185 24.5239 10.091 24.5239C9.46336 24.5239 8.95459 25.0782 8.95459 25.762C8.95459 26.4458 9.46336 27.0001 10.091 27.0001Z" stroke="#00D276" stroke-width="2" stroke-linecap="round" stroke-linejoin="round"/>
<path d="M22.591 27.0001C23.2185 27.0001 23.7273 26.4458 23.7273 25.762C23.7273 25.0782 23.2185 24.5239 22.591 24.5239C21.9634 24.5239 21.4546 25.0782 21.4546 25.762C21.4546 26.4458 21.9634 27.0001 22.591 27.0001Z" stroke="#00D276" stroke-width="2" stroke-linecap="round" stroke-linejoin="round"/>
<path d="M1 1H5.54545L8.59091 17.5781C8.69482 18.1481 8.97944 18.6601 9.39494 19.0246C9.81044 19.389 10.3303 19.5826 10.8636 19.5714H21.9091C22.4424 19.5826 22.9623 19.389 23.3778 19.0246C23.7933 18.6601 24.0779 18.1481 24.1818 17.5781L26 7.19048H6.68182" stroke="#00D276" stroke-width="2" stroke-linecap="round" stroke-linejoin="round"/>
</svg>
