<svg width="32" height="33" viewBox="0 0 32 33" fill="none" xmlns="http://www.w3.org/2000/svg">
<path d="M11.909 31.3896C12.6622 31.3896 13.2727 30.744 13.2727 29.9477C13.2727 29.1513 12.6622 28.5057 11.909 28.5057C11.1559 28.5057 10.5454 29.1513 10.5454 29.9477C10.5454 30.744 11.1559 31.3896 11.909 31.3896Z" stroke="white" stroke-width="2" stroke-linecap="round" stroke-linejoin="round"/>
<path d="M26.909 31.3896C27.6622 31.3896 28.2727 30.744 28.2727 29.9477C28.2727 29.1513 27.6622 28.5057 26.909 28.5057C26.1559 28.5057 25.5454 29.1513 25.5454 29.9477C25.5454 30.744 26.1559 31.3896 26.909 31.3896Z" stroke="white" stroke-width="2" stroke-linecap="round" stroke-linejoin="round"/>
<path d="M1 1.108H6.45455L10.1091 20.4162C10.2338 21.0801 10.5753 21.6764 11.0739 22.1009C11.5725 22.5253 12.1964 22.7507 12.8364 22.7378H26.0909C26.7309 22.7507 27.3548 22.5253 27.8533 22.1009C28.3519 21.6764 28.6935 21.0801 28.8182 20.4162L31 8.31793H7.81818" stroke="white" stroke-width="2" stroke-linecap="round" stroke-linejoin="round"/>
</svg>
