<svg width="102" height="101" viewBox="0 0 102 101" fill="none" xmlns="http://www.w3.org/2000/svg">
<path fill-rule="evenodd" clip-rule="evenodd" d="M19.5024 70.157C15.7328 64.0763 15.43 56.7293 15.6561 49.5847C15.8683 42.8783 16.8931 36.1104 20.7532 30.6311C24.5651 25.2202 30.6886 22.3908 36.7254 19.6777C43.2692 16.7367 49.9043 13.4577 57.0327 14.3261C64.9068 15.2855 73.0138 18.3681 77.8255 24.6851C82.6172 30.9757 81.6851 39.5115 82.2222 47.3956C82.781 55.5976 86.9535 65.7566 81.0094 71.4186C74.7992 77.3343 64.1573 70.0853 55.9125 72.4572C48.6324 74.5516 44.5994 84.5477 37.0342 84.0698C29.41 83.5881 23.5323 76.6576 19.5024 70.157Z" fill="#00D276"/>
<path d="M70 36.0928L69.1815 40.4731H60.5292L59.1261 47.5838H67.7785L67.0185 52.021H58.3662L56.2031 63H51.7015L53.7477 52.021H46.0892L43.9262 63H39.4246L41.4708 52.021H32L32.8185 47.5838H42.2308L43.6338 40.4731H34.2215L35.04 36.0928H44.3354L46.4985 25H50.9415L48.9538 36.0928H56.6123L58.7754 25H63.2185L61.2308 36.0928H70ZM55.9108 40.4731H48.2523L46.8492 47.5838H54.5077L55.9108 40.4731Z" fill="white"/>
</svg>
