<svg width="177" height="29" viewBox="0 0 177 29" fill="none" xmlns="http://www.w3.org/2000/svg">
<g opacity="0.9">
<path d="M18.691 13.3464L18.7031 13.3221C21.4018 7.75411 27.1728 0.655321 27.2312 0.58484L27.4395 0.329346V23.586L27.2907 23.5441C27.283 23.5419 26.508 23.3272 25.4133 23.3272C23.364 23.3272 20.5739 24.0452 18.9148 27.4679L18.6921 27.9283V13.3464H18.691Z" fill="#FFA259"/>
<path d="M27.3216 0.658559V23.3502V23.4306C27.3216 23.4306 26.5378 23.2093 25.4123 23.2093C23.4776 23.2093 20.5309 23.8623 18.809 27.4161V13.3727C21.5319 7.75294 27.3216 0.658559 27.3216 0.658559ZM27.5564 0L27.1397 0.509888C27.0813 0.58147 21.3015 7.69017 18.5973 13.2703L18.5742 13.3188V13.3727V27.4161V28.4381L19.0195 27.5185C20.6511 24.1508 23.396 23.4438 25.4123 23.4438C26.4926 23.4438 27.2499 23.6542 27.2577 23.6564L27.5564 23.7401V23.4306V23.3502V0.658559V0Z" fill="white"/>
<path d="M18.691 13.3464L18.7031 13.3222C20.7359 9.12852 29.3445 2.8678 29.7104 2.6035L29.9133 2.45703L29.8968 2.70592C29.8835 2.91075 28.5276 23.1499 28.5199 23.3327L28.5144 23.4439L28.4019 23.445C28.327 23.445 20.9013 23.5012 18.9148 27.6012L18.6921 28.0615V13.3464H18.691Z" fill="#FFE153"/>
<path d="M29.7788 2.69818C29.7788 2.69818 28.4019 23.2677 28.4019 23.3283C28.4019 23.3283 20.8517 23.3349 18.809 27.5505V13.3728C20.8517 9.15823 29.7788 2.69818 29.7788 2.69818ZM30.0467 2.21582L29.6421 2.50876C29.2761 2.77416 20.6433 9.0514 18.5984 13.2715L18.5753 13.3199V13.3739V27.5516V28.5736L19.0206 27.6541C20.0348 25.5605 22.5163 24.5606 24.419 24.0892C26.5113 23.5716 28.3843 23.5628 28.403 23.5628H28.6368V23.3349C28.6588 22.9428 30.0004 2.91733 30.0136 2.7147L30.0467 2.21582Z" fill="white"/>
<path d="M18.691 13.3463L18.7031 13.3221C20.0668 10.5072 31.6914 4.87092 32.1853 4.63304L32.3848 4.53613L32.3518 4.75529C32.3242 4.937 29.6531 22.8315 29.598 23.2324V23.3238L29.501 23.3414C29.4084 23.3579 20.2332 25.012 18.9126 27.7366L18.6899 28.1969V13.3463H18.691Z" fill="#9DD288"/>
<path d="M32.2361 4.73888C32.2361 4.73888 29.4812 23.1862 29.4812 23.2259C29.4812 23.2259 20.1693 24.8756 18.8079 27.686V13.3728C20.1704 10.5635 32.2361 4.73888 32.2361 4.73888ZM32.5337 4.33472L32.1346 4.52744C31.6386 4.76641 19.9797 10.4203 18.5973 13.2715L18.5742 13.32V13.3739V27.686V28.708L19.0195 27.7885C19.5465 26.7004 21.5186 25.6068 24.72 24.6278C27.1761 23.8767 29.4988 23.4616 29.522 23.4572L29.716 23.423V23.2413C29.7954 22.6709 32.4411 4.95363 32.4675 4.77302L32.5337 4.33472Z" fill="white"/>
<path d="M18.691 13.3462L18.7031 13.322C19.3976 11.8893 34.0329 6.87958 34.6558 6.66704L34.8608 6.59766L34.8079 6.8069C34.7671 6.96658 30.8007 22.6376 30.6794 23.1365V23.2103L30.5957 23.2356C27.5299 24.1475 19.4538 26.7564 18.9148 27.8709L18.6921 28.3312V13.3462H18.691Z" fill="#00C2B4"/>
<path d="M34.6944 6.77821C34.6944 6.77821 30.5626 23.1023 30.5626 23.1222C30.5626 23.1222 19.4902 26.4138 18.809 27.8191V13.3726C19.4891 11.9674 34.6944 6.77821 34.6944 6.77821ZM35.0273 6.41699L34.6183 6.55685C34.5797 6.57007 30.7688 7.87287 26.9236 9.32985C24.6626 10.1866 22.8316 10.9289 21.4823 11.5368C19.1661 12.5786 18.7241 13.0114 18.5984 13.2713L18.5753 13.3198V13.3737V27.8202V28.8421L19.0206 27.9226C19.1364 27.6847 19.951 26.9403 25.0187 25.1661C27.8342 24.1805 30.6023 23.3567 30.6299 23.3479L30.7974 23.2984V23.1508C30.9716 22.4438 34.8818 6.99516 34.9226 6.83658L35.0273 6.41699Z" fill="white"/>
<path d="M18.691 13.2812L37.3423 8.65039L31.7333 23.1112L18.691 28.1252V13.2812Z" fill="#7A7E7B"/>
<path d="M37.1516 8.81892L31.643 23.0209L18.809 27.9546V13.3738L37.1516 8.81892ZM37.533 8.48193L37.0943 8.59096L18.7516 13.1458L18.5742 13.1899V13.3727V27.9535V28.2949L18.8927 28.1726L31.7267 23.2389L31.8238 23.2015L31.8612 23.1046L37.3699 8.90262L37.533 8.48193Z" fill="white"/>
<path d="M18.6192 27.4679C16.9613 24.0463 14.17 23.3272 12.1207 23.3272C11.0238 23.3272 10.251 23.5419 10.2433 23.5441L10.0945 23.586V0.329346L10.3028 0.58484C10.3613 0.656423 16.1323 7.75411 18.8309 13.3221L18.843 13.3464V27.9272L18.6192 27.4679Z" fill="#FFA259"/>
<path d="M10.2114 0.658559C10.2114 0.658559 16.0011 7.75294 18.724 13.3738V27.4172C17.0021 23.8634 14.0554 23.2104 12.1207 23.2104C10.9952 23.2104 10.2114 23.4317 10.2114 23.4317V23.3513V0.658559ZM9.97766 0V0.658559V23.3502V23.4306V23.7401L10.2764 23.6553C10.2841 23.6531 11.0459 23.4427 12.1218 23.4427C14.137 23.4427 16.883 24.1497 18.5146 27.5174L18.9599 28.437V27.415V13.3727V13.3188L18.9368 13.2703C16.2315 7.69017 10.4517 0.58147 10.3933 0.509888L9.97766 0Z" fill="white"/>
<path d="M18.6193 27.6023C16.6328 23.5023 9.20602 23.4461 9.13106 23.4461H9.01421V23.3294C9.00649 23.151 7.65055 2.91075 7.63732 2.70592L7.62079 2.45703L7.82363 2.6035C8.18962 2.8678 16.7982 9.12852 18.831 13.3222L18.8431 13.3464V28.0615L18.6193 27.6023Z" fill="#FFE153"/>
<path d="M7.7542 2.69818C7.7542 2.69818 16.6824 9.15712 18.7252 13.3728V27.5505C16.6824 23.3349 9.13219 23.3283 9.13219 23.3283C9.13109 23.2677 7.7542 2.69818 7.7542 2.69818ZM7.48743 2.21582L7.5205 2.7147C7.53373 2.91733 8.87423 22.9406 8.89738 23.3349V23.5628H9.13219C9.15093 23.5628 11.0239 23.5716 13.1162 24.0892C15.0189 24.5595 17.5004 25.5605 18.5146 27.6541L18.96 28.5736V27.5516V13.3728V13.3188L18.9368 13.2704C16.8908 9.0514 8.258 2.77416 7.892 2.50876L7.48743 2.21582Z" fill="white"/>
<path d="M18.6193 27.7366C17.2987 25.012 8.12348 23.3579 8.03088 23.3414L7.93387 23.3238V23.2324C7.87985 22.8326 5.20766 4.937 5.1812 4.75529L5.14813 4.53613L5.34766 4.63304C5.84153 4.87202 17.4662 10.5072 18.8299 13.3221L18.842 13.3463V28.1958L18.6193 27.7366Z" fill="#9DD288"/>
<path d="M5.29703 4.73888C5.29703 4.73888 17.3627 10.5635 18.7252 13.3739V27.686C17.3638 24.8756 8.0519 23.2259 8.0519 23.2259C8.0519 23.1851 5.29703 4.73888 5.29703 4.73888ZM4.99939 4.33472L5.06443 4.77302C5.09089 4.95363 7.73662 22.6698 7.81599 23.2413V23.423L8.01001 23.4572C8.03316 23.4616 10.3559 23.8767 12.812 24.6278C16.0145 25.6068 17.9855 26.7004 18.5125 27.7885L18.9578 28.708V27.686V13.3728V13.3189L18.9347 13.2704C17.5534 10.4192 5.89343 4.76641 5.39735 4.52634L4.99939 4.33472Z" fill="white"/>
<path d="M18.6194 27.8709C18.0792 26.7564 10.0042 24.1464 6.93848 23.2356L6.8547 23.2103V23.1365C6.73343 22.6376 2.76704 6.96768 2.72625 6.8069L2.67334 6.59766L2.87838 6.66704C3.50123 6.87958 18.1376 11.8893 18.831 13.322L18.8432 13.3462V28.3301L18.6194 27.8709Z" fill="#00C2B4"/>
<path d="M2.83976 6.77821C2.83976 6.77821 18.0439 11.9674 18.7252 13.3726V27.8191C18.0439 26.4138 6.97151 23.1222 6.97151 23.1222C6.97151 23.1023 2.83976 6.77821 2.83976 6.77821ZM2.50574 6.41699L2.61157 6.83547C2.65125 6.99406 6.56142 22.4427 6.7367 23.1497V23.2973L6.90427 23.3468C6.93183 23.3545 9.70102 24.1805 12.5165 25.165C17.5831 26.938 18.3989 27.6825 18.5135 27.9204L18.9589 28.8399V27.818V13.3726V13.3186L18.9357 13.2702C18.809 13.0092 18.368 12.5775 16.0519 11.5357C14.7015 10.9289 12.8704 10.1866 10.6105 9.32875C6.76536 7.87067 2.95441 6.56897 2.91583 6.55575L2.50574 6.41699Z" fill="white"/>
<path d="M5.80079 23.1112L0.190735 8.65039L18.842 13.2812V28.1252L5.80079 23.1112Z" fill="#4D4E4C"/>
<path d="M0.382529 8.81892L18.7252 13.3738V27.9546L5.89116 23.0209L0.382529 8.81892ZM0 8.48193L0.163153 8.90262L5.67179 23.1046L5.70927 23.2015L5.80628 23.2389L18.6403 28.1726L18.9589 28.2949V27.9535V13.3727V13.1899L18.7814 13.1458L0.43875 8.59096L0 8.48193Z" fill="white"/>
</g>
<path opacity="0.8" d="M57.038 16.114V22.274L58.952 22.472V23H52.858V22.472L54.772 22.274V9.052L52.858 8.788V8.304H63.528L63.55 11.428H62.978L62.23 9.096L57.038 9.03V15.322H61.614L62.296 13.694H62.736V17.786H62.274L61.614 16.114H57.038ZM76.1711 17.632C76.1711 19.26 75.6798 20.602 74.6971 21.658C73.7145 22.714 72.3725 23.242 70.6711 23.242C68.9845 23.242 67.6498 22.714 66.6671 21.658C65.6845 20.602 65.1931 19.26 65.1931 17.632C65.1931 16.004 65.6845 14.662 66.6671 13.606C67.6498 12.55 68.9845 12.022 70.6711 12.022C72.3725 12.022 73.7145 12.55 74.6971 13.606C75.6798 14.662 76.1711 16.004 76.1711 17.632ZM67.5911 17.632C67.5911 21.02 68.6178 22.714 70.6711 22.714C72.7391 22.714 73.7731 21.02 73.7731 17.632C73.7731 15.9893 73.5385 14.7353 73.0691 13.87C72.5998 13.0047 71.8078 12.572 70.6931 12.572C69.5785 12.572 68.7791 13.0047 68.2951 13.87C67.8258 14.7353 67.5911 15.9893 67.5911 17.632ZM82.8122 23H77.7522V22.472L79.2042 22.362V7.204L77.2462 7.116V6.61L81.3602 6.148V22.362L82.8122 22.472V23ZM91.3742 12.11C93.7208 12.11 94.8942 13.2393 94.8942 15.498C94.8942 17.126 94.8428 19.414 94.7402 22.362L96.3022 22.472V23H91.3962V22.472L92.5842 22.384C92.6868 18.512 92.7382 16.1653 92.7382 15.344C92.7382 14.508 92.5842 13.8847 92.2762 13.474C91.9682 13.0633 91.4328 12.858 90.6702 12.858C89.9222 12.858 89.2182 13.2173 88.5582 13.936C87.8982 14.6547 87.5682 15.3147 87.5682 15.916V22.362L89.0202 22.472V23H83.9602V22.472L85.4122 22.362V7.204L83.4762 7.116L83.4542 6.61L87.5682 6.148C87.4802 11.1787 87.4288 13.8627 87.4142 14.2H87.5902C87.9862 13.5253 88.5142 13.012 89.1742 12.66C89.8488 12.2933 90.5822 12.11 91.3742 12.11ZM99.788 20.624C99.788 21.5773 100.177 22.142 100.954 22.318C101.13 22.362 101.299 22.384 101.46 22.384C102.017 22.384 102.597 22.1493 103.198 21.68C103.799 21.196 104.115 20.5507 104.144 19.744V17.852C101.24 17.8813 99.788 18.8053 99.788 20.624ZM100.668 23.264C99.832 23.264 99.1133 23.0367 98.512 22.582C97.9253 22.1127 97.632 21.46 97.632 20.624C97.6466 19.4947 98.2113 18.6513 99.326 18.094C100.455 17.5367 102.061 17.258 104.144 17.258V15.366C104.144 13.5033 103.469 12.572 102.12 12.572C101.431 12.572 100.873 12.858 100.448 13.43C100.155 13.826 100.008 14.3173 100.008 14.904C100.008 15.1533 100.037 15.4173 100.096 15.696C99.8906 15.8427 99.678 15.916 99.458 15.916C99.2526 15.916 99.0473 15.872 98.842 15.784C98.3726 15.608 98.138 15.2707 98.138 14.772C98.138 14.0973 98.38 13.54 98.864 13.1C99.656 12.3813 100.749 12.022 102.142 12.022C103.535 12.022 104.547 12.3227 105.178 12.924C105.809 13.5107 106.124 14.442 106.124 15.718V22.384L107.972 22.472L107.994 22.978L104.32 23.242L104.122 21.284C103.447 22.604 102.296 23.264 100.668 23.264Z" fill="#202020"/>
<path opacity="0.8" d="M111.619 20.6689H113.703C115.501 20.6689 116.868 20.1999 117.807 19.2617C118.745 18.3164 119.214 16.9414 119.214 15.1367C119.214 13.2031 118.73 11.7995 117.764 10.9258C116.797 10.0449 115.34 9.60449 113.392 9.60449H111.619V20.6689ZM108.708 23V7.2627H113.263C114.638 7.2627 115.869 7.42025 116.958 7.73535C118.047 8.05046 118.981 8.52669 119.762 9.16406C120.549 9.79427 121.151 10.6107 121.566 11.6133C121.989 12.6087 122.2 13.7617 122.2 15.0723C122.2 17.6146 121.434 19.5732 119.901 20.9482C118.369 22.3161 116.245 23 113.531 23H108.708ZM124.757 23V11.1943H127.571V23H124.757ZM124.757 9.47559V7.06934H127.582V9.47559H124.757ZM132.878 28.2852L132.717 26.0078H134.146C135.8 26.0078 136.956 25.7858 137.615 25.3418C138.274 24.9049 138.604 24.0993 138.604 22.9248C138.604 22.445 138.582 21.9258 138.539 21.3672C138.353 21.625 138.174 21.8398 138.002 22.0117C137.837 22.1764 137.626 22.3411 137.368 22.5059C137.118 22.6706 136.813 22.7959 136.455 22.8818C136.104 22.9606 135.703 23 135.252 23C133.691 23 132.405 22.4378 131.396 21.3135C130.393 20.1891 129.892 18.7389 129.892 16.9629C129.892 16.0176 130.031 15.1582 130.311 14.3848C130.59 13.6042 130.969 12.9632 131.449 12.4619C131.929 11.9606 132.48 11.5775 133.104 11.3125C133.734 11.0404 134.403 10.9043 135.112 10.9043C136.695 10.9043 137.873 11.4808 138.646 12.6338L138.84 11.1943H141.354V22.1621C141.354 22.7493 141.325 23.2757 141.268 23.7412C141.21 24.2139 141.11 24.665 140.967 25.0947C140.824 25.5316 140.634 25.9111 140.397 26.2334C140.168 26.5557 139.878 26.8493 139.527 27.1143C139.176 27.3792 138.761 27.5941 138.281 27.7588C137.809 27.9307 137.257 28.0596 136.627 28.1455C135.997 28.2386 135.288 28.2852 134.5 28.2852H132.878ZM135.703 21.0342C137.644 21.0342 138.625 19.7344 138.646 17.1348V16.7266C138.632 15.5592 138.389 14.6569 137.916 14.0195C137.443 13.3822 136.752 13.0599 135.843 13.0527C134.812 13.0527 134.031 13.4072 133.501 14.1162C132.971 14.818 132.706 15.7669 132.706 16.9629C132.706 18.1159 132.971 19.0827 133.501 19.8633C134.038 20.6439 134.772 21.0342 135.703 21.0342ZM144.2 23V11.1943H147.015V23H144.2ZM144.2 9.47559V7.06934H147.025V9.47559H144.2ZM154.674 23.1611C153.872 23.1611 153.202 23.068 152.665 22.8818C152.135 22.6885 151.72 22.3877 151.419 21.9795C151.118 21.5713 150.903 21.0915 150.774 20.54C150.653 19.9814 150.592 19.2939 150.592 18.4775V12.9023H148.658L148.766 11.377L150.785 11.1943L151.688 7.99316L153.406 7.98242V11.1943H156.339V12.9023H153.406V18.5312C153.406 19.4264 153.535 20.0638 153.793 20.4434C154.051 20.8229 154.527 21.0127 155.222 21.0127C155.63 21.0127 156.067 20.9769 156.532 20.9053L156.607 22.9248C156.593 22.9248 156.504 22.9427 156.339 22.9785C156.181 23.0072 156.027 23.0322 155.877 23.0537C155.734 23.0824 155.548 23.1074 155.318 23.1289C155.089 23.1504 154.874 23.1611 154.674 23.1611ZM161.688 23.2256C160.593 23.2256 159.705 22.9248 159.024 22.3232C158.351 21.7145 158.015 20.8408 158.015 19.7021C158.015 18.4775 158.416 17.5716 159.218 16.9844C160.02 16.39 161.23 16.014 162.849 15.8564C163.071 15.8278 163.311 15.7992 163.568 15.7705C163.826 15.7419 164.116 15.7132 164.438 15.6846C164.761 15.6559 165.015 15.6309 165.201 15.6094V14.9863C165.201 14.2702 165.036 13.751 164.707 13.4287C164.378 13.0993 163.876 12.9346 163.203 12.9346C162.243 12.9346 161.058 13.2031 159.647 13.7402C159.64 13.7188 159.522 13.3929 159.293 12.7627C159.064 12.1325 158.946 11.8102 158.938 11.7959C160.328 11.2015 161.832 10.9043 163.45 10.9043C165.04 10.9043 166.197 11.2516 166.92 11.9463C167.643 12.6338 168.005 13.751 168.005 15.2979V23H165.921C165.914 22.9714 165.835 22.7314 165.685 22.2803C165.534 21.8291 165.459 21.5892 165.459 21.5605C164.872 22.1335 164.295 22.556 163.729 22.8281C163.171 23.0931 162.491 23.2256 161.688 23.2256ZM162.451 21.2275C163.103 21.2275 163.669 21.0736 164.148 20.7656C164.635 20.4505 164.983 20.071 165.19 19.627V17.3496C165.169 17.3496 164.979 17.3639 164.621 17.3926C164.27 17.4212 164.08 17.4355 164.052 17.4355C162.913 17.5358 162.079 17.7507 161.549 18.0801C161.019 18.4095 160.754 18.9395 160.754 19.6699C160.754 20.1712 160.901 20.5579 161.194 20.8301C161.488 21.0951 161.907 21.2275 162.451 21.2275ZM174.977 23.1611C174.167 23.1611 173.494 23.068 172.957 22.8818C172.427 22.6885 172.008 22.3841 171.7 21.9688C171.392 21.5534 171.177 21.0592 171.056 20.4863C170.934 19.9134 170.873 19.2008 170.873 18.3486V6.84375L173.688 6.66113V18.2949C173.688 19.3548 173.813 20.0745 174.063 20.4541C174.314 20.8265 174.801 21.0127 175.524 21.0127C175.882 21.0127 176.337 20.9733 176.889 20.8945L176.964 22.9033C176.957 22.9033 176.867 22.9212 176.695 22.957C176.531 22.9928 176.369 23.0215 176.212 23.043C176.062 23.0716 175.868 23.0967 175.632 23.1182C175.396 23.1468 175.177 23.1611 174.977 23.1611Z" fill="#202020"/>
</svg>
