<svg width="148" height="361" viewBox="0 0 148 361" fill="none" xmlns="http://www.w3.org/2000/svg">
<path fill-rule="evenodd" clip-rule="evenodd" d="M341.722 341.567C321.559 377.448 298.964 409.308 270.154 436.62C237.902 467.196 205.322 503.368 165.902 508.248C124.874 513.327 88.1154 490.799 58.4181 462.832C28.9773 435.106 -0.445681 399.106 0.591102 352.566C1.58798 307.819 49.1165 277.886 63.5092 234.298C79.505 185.855 59.7402 151.2 77.6725 92.6249C90.9652 49.2054 127.513 -6.83729 169.014 1.44755C207.325 9.09552 270.209 105.845 300.807 130.819C333.799 157.747 390.881 158.798 399.967 205.601C409.032 252.291 366.372 297.698 341.722 341.567Z" fill="#00D276"/>
</svg>
