<svg width="139" height="396" viewBox="0 0 139 396" fill="none" xmlns="http://www.w3.org/2000/svg">
<path fill-rule="evenodd" clip-rule="evenodd" d="M334.113 147.932C357.117 183.652 425.103 195.548 419.901 238.055C414.594 281.417 348.31 284.484 313.994 312.327C289.326 332.342 277.526 366.227 247.892 377.619C216.64 389.634 183.457 379.242 150.466 375.192C105.213 369.637 46.9854 417.441 18.5 382.5C-9.60461 348.026 -1.99999 255 22.8975 218.714C46.3861 184.482 66.926 160.567 87.0191 128.596C111.764 89.2239 111.826 30.2872 153.94 10.2077C196.171 -9.92713 251.231 4.9509 287.771 32.882C321.495 58.6606 311.182 112.324 334.113 147.932Z" fill="#00D276"/>
</svg>
