<svg width="246" height="210" viewBox="0 0 246 210" fill="none" xmlns="http://www.w3.org/2000/svg">
<path d="M30.9029 94.6818L1 68.5715" stroke="#00D276" stroke-width="3"/>
<path d="M214.545 95.8534L242.228 67.4" stroke="#00D276" stroke-width="3"/>
<path d="M80.8905 39.783L72.416 1.00006" stroke="#00D276" stroke-width="3"/>
<path d="M171.557 37.7547L187.327 1.32336" stroke="#00D276" stroke-width="3"/>
<path d="M184.372 135.035V207.095H69.0752V135.035" stroke="#00D276" stroke-width="4" stroke-linecap="round" stroke-linejoin="round"/>
<path d="M198.783 99.0046H54.6621V135.035H198.783V99.0046Z" stroke="#00D276" stroke-width="4" stroke-linecap="round" stroke-linejoin="round"/>
<path d="M126.723 207.095V99.0046" stroke="#00D276" stroke-width="4" stroke-linecap="round" stroke-linejoin="round"/>
<path d="M126.722 99.0046H94.2944C89.5165 99.0046 84.9343 97.1066 81.5558 93.7281C78.1773 90.3496 76.2793 85.7674 76.2793 80.9895C76.2793 76.2116 78.1773 71.6294 81.5558 68.2509C84.9343 64.8724 89.5165 62.9744 94.2944 62.9744C119.516 62.9744 126.722 99.0046 126.722 99.0046Z" stroke="#00D276" stroke-width="4" stroke-linecap="round" stroke-linejoin="round"/>
<path d="M126.723 99.0046H159.15C163.928 99.0046 168.51 97.1066 171.889 93.7281C175.267 90.3496 177.165 85.7674 177.165 80.9895C177.165 76.2116 175.267 71.6294 171.889 68.2509C168.51 64.8724 163.928 62.9744 159.15 62.9744C133.929 62.9744 126.723 99.0046 126.723 99.0046Z" stroke="#00D276" stroke-width="4" stroke-linecap="round" stroke-linejoin="round"/>
</svg>
